# xmcd
# 
# Track frame offsets:
#     150
#     30015
#     47087
#     70135
#     90740
#     109077
#     121890
#     141992
#     165472
#     182662
#     193750
#     221755
# 
# Disc length: 3112
# 
# Revision: 2
# Processed by: cddbd v1.5.2PL0 Copyright (c) Steve Scherf et al.
# Submitted via: fre:ac v1.0.17
# 
DISCID=a30c260c
DTITLE=Joan Manuel Serrat - SerratMô
DYEAR=2006
DGENRE=Pop
TTITLE0=mô
TTITLE1=El teu angel de la guerda
TTITLE2=perdut en la ciutat
TTITLE3=Cremant nuvols
TTITLE4=Mala mar
TTITLE5=Plou al cor
TTITLE6=El mal de la tarongina
TTITLE7=Capgros
TTITLE8=Fugir de tu
TTITLE9=Ja tens l´amor
TTITLE10=Si hagues nascut dona
TTITLE11=Res al ras
EXTD=YEAR: 2006 ID3G: 13
EXTT0=
EXTT1=
EXTT2=
EXTT3=
EXTT4=
EXTT5=
EXTT6=
EXTT7=
EXTT8=
EXTT9=
EXTT10=
EXTT11=
PLAYORDER=
